#tb 0: 100/2397
#media_type 0: video
#codec_id 0: rawvideo
#dimensions 0: 320x240
#sar 0: 0/1
0,          0,          0,        1,   153600, 0x69a234de
0,          1,          1,        1,   153600, 0x7f43aee5
0,          2,          2,        1,   153600, 0x81030634
0,          3,          3,        1,   153600, 0xf570d0ef
0,          4,          4,        1,   153600, 0x386e8cec
0,          5,          5,        1,   153600, 0xbe53af8f
0,          6,          6,        1,   153600, 0xf92f48bd
0,          7,          7,        1,   153600, 0x594472c5
